<?xml version="1.0" encoding="UTF-8"?>
<!-- Generator: visioncortex VTracer -->
<svg id="svg" version="1.1" xmlns="http://www.w3.org/2000/svg" viewBox="0 0 1024 1024" style="display: block;"><path d="M0 0 C337.92 0 675.84 0 1024 0 C1024 337.92 1024 675.84 1024 1024 C686.08 1024 348.16 1024 0 1024 C0 686.08 0 348.16 0 0 Z M492 185 C484.74 185.66 477.48 186.32 470 187 C463.4 187.99 456.8 188.98 450 190 C440.1 192.31 430.2 194.62 420 197 C410.1 200.3 400.2 203.6 390 207 C384.06 209.64 378.12 212.28 372 215 C364.74 218.63 357.48 222.26 350 226 C344.06 229.63 338.12 233.26 332 237 C326.72 240.63 321.44 244.26 316 248 C309.565 252.95 309.565 252.95 303 258 C298.71 261.63 294.42 265.26 290 269 C289.34 270.32 288.68 271.64 288 273 C295.26 276.3 302.52 279.6 310 283 C319.57 286.63 329.14 290.26 339 294 C352.53 298.62 366.06 303.24 380 308 C382.31 308.66 384.62 309.32 387 310 C388.98 310 390.96 310 393 310 C396.96 305.05 396.96 305.05 401 300 C404.96 295.05 404.96 295.05 409 290 C412.63 285.71 416.26 281.42 420 277 C423.63 272.71 427.26 268.42 431 264 C436.94 257.07 436.94 257.07 443 250 C447.29 245.05 451.58 240.1 456 235 C459.63 231.04 463.26 227.08 467 223 C471.455 218.05 471.455 218.05 476 213 C478.97 209.7 481.94 206.4 485 203 C489.62 198.05 494.24 193.1 499 188 C499.33 187.01 499.66 186.02 500 185 C497.36 185 494.72 185 492 185 Z M540 187 C532.575 194.425 532.575 194.425 525 202 C521.535 205.96 521.535 205.96 518 210 C513.545 214.455 513.545 214.455 509 219 C505.535 222.96 505.535 222.96 502 227 C498.7 230.63 495.4 234.26 492 238 C489.69 240.64 487.38 243.28 485 246 C479.06 252.93 479.06 252.93 473 260 C469.37 263.96 465.74 267.92 462 272 C459.03 275.63 456.06 279.26 453 283 C449.04 287.29 445.08 291.58 441 296 C438.03 299.63 435.06 303.26 432 307 C428.04 311.95 428.04 311.95 424 317 C424 317.66 424 318.32 424 319 C427.63 319.99 431.26 320.98 435 322 C451.83 324.97 451.83 324.97 469 328 C478.24 328.99 487.48 329.98 497 331 C502.28 331.33 507.56 331.66 513 332 C525.87 332 538.74 332 552 332 C558.6 331.01 565.2 330.02 572 329 C574.475 327.02 574.475 327.02 577 325 C579.64 321.04 582.28 317.08 585 313 C589.29 307.06 593.58 301.12 598 295 C601.3 290.38 604.6 285.76 608 281 C610.97 276.71 613.94 272.42 617 268 C618.32 268.66 619.64 269.32 621 270 C624.63 274.62 628.26 279.24 632 284 C636.29 289.28 640.58 294.56 645 300 C648.3 299.01 651.6 298.02 655 297 C664.405 293.535 664.405 293.535 674 290 C677.63 288.35 681.26 286.7 685 285 C690.28 283.02 695.56 281.04 701 279 C707.93 276.36 714.86 273.72 722 271 C725.96 269.515 725.96 269.515 730 268 C728.68 266.35 727.36 264.7 726 263 C717.585 256.565 717.585 256.565 709 250 C703.39 246.04 697.78 242.08 692 238 C684.575 233.545 684.575 233.545 677 229 C665.615 223.06 665.615 223.06 654 217 C647.4 214.03 640.8 211.06 634 208 C627.4 205.69 620.8 203.38 614 201 C607.73 199.02 601.46 197.04 595 195 C586.75 193.35 578.5 191.7 570 190 C563.4 189.01 556.8 188.02 550 187 C546.7 187 543.4 187 540 187 Z M766 284 C762.04 285.32 758.08 286.64 754 288 C749.05 289.98 749.05 289.98 744 292 C735.585 295.465 735.585 295.465 727 299 C718.585 301.97 718.585 301.97 710 305 C706.37 306.65 702.74 308.3 699 310 C694.71 311.32 690.42 312.64 686 314 C686 314.99 686 315.98 686 317 C690.29 320.3 694.58 323.6 699 327 C701.31 328.65 703.62 330.3 706 332 C706.66 332 707.32 332 708 332 C706.68 334.31 705.36 336.62 704 339 C700.37 343.62 696.74 348.24 693 353 C689.37 357.62 685.74 362.24 682 367 C681.01 368.32 680.02 369.64 679 371 C679 371.66 679 372.32 679 373 C677.515 373.495 677.515 373.495 676 374 C675.01 374.99 674.02 375.98 673 377 C670.03 373.37 667.06 369.74 664 366 C661.03 362.37 658.06 358.74 655 355 C651.37 350.71 647.74 346.42 644 342 C641.03 338.37 638.06 334.74 635 331 C630.71 325.72 626.42 320.44 622 315 C621.67 314.34 621.34 313.68 621 313 C619.68 313.66 618.36 314.32 617 315 C614.36 318.63 611.72 322.26 609 326 C604.05 332.93 604.05 332.93 599 340 C595.37 344.95 591.74 349.9 588 355 C584.7 359.62 581.4 364.24 578 369 C574.04 374.61 570.08 380.22 566 386 C561.71 391.94 557.42 397.88 553 404 C548.71 409.94 544.42 415.88 540 422 C537.36 425.63 534.72 429.26 532 433 C528.04 438.61 524.08 444.22 520 450 C515.71 455.94 511.42 461.88 507 468 C506.01 468 505.02 468 504 468 C499.71 463.71 495.42 459.42 491 455 C488.36 452.69 485.72 450.38 483 448 C478.71 443.71 474.42 439.42 470 435 C468.68 435.33 467.36 435.66 466 436 C462.04 439.96 458.08 443.92 454 448 C451.69 450.64 449.38 453.28 447 456 C443.37 459.96 439.74 463.92 436 468 C432.04 472.29 428.08 476.58 424 481 C420.04 485.29 416.08 489.58 412 494 C409.03 497.3 406.06 500.6 403 504 C400.03 507.3 397.06 510.6 394 514 C391.03 517.3 388.06 520.6 385 524 C380.05 529.445 380.05 529.445 375 535 C372.69 537.64 370.38 540.28 368 543 C363.05 548.28 358.1 553.56 353 559 C349.535 562.96 349.535 562.96 346 567 C343.03 570.3 340.06 573.6 337 577 C336.34 577.99 335.68 578.98 335 580 C335.33 582.64 335.66 585.28 336 588 C338.97 596.58 341.94 605.16 345 614 C346.32 613.67 347.64 613.34 349 613 C351.31 610.69 353.62 608.38 356 606 C359.465 602.04 359.465 602.04 363 598 C369.93 590.575 369.93 590.575 377 583 C383.93 575.575 383.93 575.575 391 568 C393.97 564.7 396.94 561.4 400 558 C402.97 554.7 405.94 551.4 409 548 C412.63 544.04 416.26 540.08 420 536 C422.31 533.36 424.62 530.72 427 528 C430.63 524.04 434.26 520.08 438 516 C440.97 512.7 443.94 509.4 447 506 C452.94 499.565 452.94 499.565 459 493 C461.31 490.36 463.62 487.72 466 485 C466.66 484.34 467.32 483.68 468 483 C469.32 483.33 470.64 483.66 472 484 C474.64 486.64 477.28 489.28 480 492 C482.64 494.31 485.28 496.62 488 499 C493.61 504.28 499.22 509.56 505 515 C506.32 515.66 507.64 516.32 509 517 C509 517.66 509 518.32 509 519 C509.99 519 510.98 519 512 519 C513.98 516.03 515.96 513.06 518 510 C522.29 504.06 526.58 498.12 531 492 C534.96 486.72 538.92 481.44 543 476 C545.97 471.71 548.94 467.42 552 463 C556.62 456.73 561.24 450.46 566 444 C570.29 438.06 574.58 432.12 579 426 C584.94 417.585 584.94 417.585 591 409 C595.29 403.06 599.58 397.12 604 391 C606.31 387.7 608.62 384.4 611 381 C613.97 376.71 616.94 372.42 620 368 C620 367.34 620 366.68 620 366 C621.32 367.32 622.64 368.64 624 370 C624.66 370.99 625.32 371.98 626 373 C626.66 373 627.32 373 628 373 C628.66 374.65 629.32 376.3 630 378 C630.66 378 631.32 378 632 378 C632.66 379.32 633.32 380.64 634 382 C637.63 386.62 641.26 391.24 645 396 C646.65 397.98 648.3 399.96 650 402 C651.32 403.32 652.64 404.64 654 406 C657.96 410.95 657.96 410.95 662 416 C665.63 420.29 669.26 424.58 673 429 C673.66 429 674.32 429 675 429 C676.98 426.03 676.98 426.03 679 423 C680.65 421.35 682.3 419.7 684 418 C688.62 412.39 693.24 406.78 698 401 C700.64 397.7 703.28 394.4 706 391 C708.97 387.37 711.94 383.74 715 380 C718.63 375.38 722.26 370.76 726 366 C729.465 361.545 729.465 361.545 733 357 C733 356.34 733 355.68 733 355 C735.31 356.32 737.62 357.64 740 359 C744.29 362.63 748.58 366.26 753 370 C754.32 370.99 755.64 371.98 757 373 C757.66 373 758.32 373 759 373 C759.33 372.34 759.66 371.68 760 371 C761.32 358.46 762.64 345.92 764 333 C764.33 328.05 764.66 323.1 765 318 C765.33 317.01 765.66 316.02 766 315 C766.66 309.39 767.32 303.78 768 298 C768 293.38 768 288.76 768 284 C767.34 284 766.68 284 766 284 Z M263 295 C259.7 298.63 256.4 302.26 253 306 C249.37 310.62 245.74 315.24 242 320 C238.7 324.62 235.4 329.24 232 334 C228.04 340.27 224.08 346.54 220 353 C215.38 361.91 210.76 370.82 206 380 C203.36 385.94 200.72 391.88 198 398 C196.35 402.95 194.7 407.9 193 413 C191.02 417.95 191.02 417.95 189 423 C186.36 433.56 183.72 444.12 181 455 C179.68 463.58 178.36 472.16 177 481 C176.34 488.92 175.68 496.84 175 505 C175 515.23 175 525.46 175 536 C175.99 545.9 176.98 555.8 178 566 C179.32 573.59 180.64 581.18 182 589 C184.31 597.91 186.62 606.82 189 616 C192.3 625.24 195.6 634.48 199 644 C205.435 657.86 205.435 657.86 212 672 C216.62 679.92 221.24 687.84 226 696 C230.95 703.425 230.95 703.425 236 711 C242.435 719.415 242.435 719.415 249 728 C252.96 732.62 256.92 737.24 261 742 C261.99 743.485 261.99 743.485 263 745 C264.32 744.67 265.64 744.34 267 744 C270.96 740.04 270.96 740.04 275 736 C278.63 733.03 282.26 730.06 286 727 C290.95 723.04 295.9 719.08 301 715 C312.385 707.575 312.385 707.575 324 700 C329.94 696.7 335.88 693.4 342 690 C344.97 688.35 347.94 686.7 351 685 C350.67 683.68 350.34 682.36 350 681 C344.555 672.585 344.555 672.585 339 664 C335.04 657.07 331.08 650.14 327 643 C323.37 635.08 319.74 627.16 316 619 C313.36 611.08 310.72 603.16 308 595 C306.35 588.73 304.7 582.46 303 576 C302.01 571.05 302.01 571.05 301 566 C300.01 555.77 299.02 545.54 298 535 C298 529.06 298 523.12 298 517 C298.66 509.41 299.32 501.82 300 494 C301.32 486.41 302.64 478.82 304 471 C304.99 467.04 305.98 463.08 307 459 C309.64 451.08 312.28 443.16 315 435 C318.63 426.75 322.26 418.5 326 410 C329.96 402.74 333.92 395.48 338 388 C342.62 380.74 347.24 373.48 352 366 C357.28 358.41 362.56 350.82 368 343 C369.32 341.35 370.64 339.7 372 338 C372 337.34 372 336.68 372 336 C358.8 331.71 345.6 327.42 332 323 C324.08 320.03 316.16 317.06 308 314 C303.71 312.02 299.42 310.04 295 308 C288.07 305.03 281.14 302.06 274 299 C271.36 297.68 268.72 296.36 266 295 C265.01 295 264.02 295 263 295 Z M791 339 C787.7 365.73 784.4 392.46 781 420 C781 422.31 781 424.62 781 427 C775.72 423.04 770.44 419.08 765 415 C760.05 411.04 755.1 407.08 750 403 C749.01 402.67 748.02 402.34 747 402 C747 513.21 747 624.42 747 739 C749.64 740.65 752.28 742.3 755 744 C756.32 743.34 757.64 742.68 759 742 C761.31 739.69 763.62 737.38 766 735 C769.63 730.38 773.26 725.76 777 721 C780.96 715.72 784.92 710.44 789 705 C792.63 699.06 796.26 693.12 800 687 C803.3 681.06 806.6 675.12 810 669 C813.96 660.75 817.92 652.5 822 644 C824.31 637.73 826.62 631.46 829 625 C830.65 620.05 832.3 615.1 834 610 C837.465 595.15 837.465 595.15 841 580 C842.32 570.43 843.64 560.86 845 551 C845.495 544.565 845.495 544.565 846 538 C846 525.79 846 513.58 846 501 C844.515 486.645 844.515 486.645 843 472 C841.35 463.42 839.7 454.84 838 446 C835.69 437.42 833.38 428.84 831 420 C826.545 407.625 826.545 407.625 822 395 C819.36 389.06 816.72 383.12 814 377 C809.71 368.75 805.42 360.5 801 352 C798.36 347.71 795.72 343.42 793 339 C792.34 339 791.68 339 791 339 Z M402 345 C398.7 349.29 395.4 353.58 392 358 C388.04 363.61 384.08 369.22 380 375 C374.72 383.25 369.44 391.5 364 400 C360.7 405.94 357.4 411.88 354 418 C350.37 425.59 346.74 433.18 343 441 C339.535 450.9 339.535 450.9 336 461 C334.68 466.28 333.36 471.56 332 477 C330.68 483.6 329.36 490.2 328 497 C327.67 500.96 327.34 504.92 327 509 C327 519.56 327 530.12 327 541 C327.66 542.32 328.32 543.64 329 545 C332.96 541.04 336.92 537.08 341 533 C343.31 530.36 345.62 527.72 348 525 C350.97 521.7 353.94 518.4 357 515 C359.31 512.36 361.62 509.72 364 507 C367.96 502.71 371.92 498.42 376 494 C378.97 490.7 381.94 487.4 385 484 C389.95 478.555 389.95 478.555 395 473 C398.465 469.04 398.465 469.04 402 465 C405.96 460.71 409.92 456.42 414 452 C417.465 448.04 417.465 448.04 421 444 C427.93 436.575 427.93 436.575 435 429 C438.63 425.04 442.26 421.08 446 417 C449.63 413.04 453.26 409.08 457 405 C460.465 401.04 460.465 401.04 464 397 C465.65 396.34 467.3 395.68 469 395 C479.89 405.89 490.78 416.78 502 428 C503.98 426.02 503.98 426.02 506 424 C510.29 417.73 514.58 411.46 519 405 C522.63 400.05 526.26 395.1 530 390 C534.62 383.4 539.24 376.8 544 370 C545.32 368.02 546.64 366.04 548 364 C548 363.34 548 362.68 548 362 C539.09 362 530.18 362 521 362 C511.43 361.34 501.86 360.68 492 360 C480.45 358.68 468.9 357.36 457 356 C449.08 354.35 441.16 352.7 433 351 C427.06 349.68 421.12 348.36 415 347 C412.36 346.34 409.72 345.68 407 345 C405.35 345 403.7 345 402 345 Z M629 426 C629 512.13 629 598.26 629 687 C638.57 690.96 648.14 694.92 658 699 C667.57 703.29 677.14 707.58 687 712 C697.395 716.95 697.395 716.95 708 722 C708.66 722 709.32 722 710 722 C710 627.62 710 533.24 710 436 C708.35 437.65 706.7 439.3 705 441 C701.37 444.63 697.74 448.26 694 452 C690.04 453.98 690.04 453.98 686 456 C684.68 456.33 683.36 456.66 682 457 C676.39 457 670.78 457 665 457 C661.04 455.02 657.08 453.04 653 451 C649.7 447.7 646.4 444.4 643 441 C640.03 437.37 637.06 433.74 634 430 C632.35 428.68 630.7 427.36 629 426 Z M591 461 C586.71 466.94 582.42 472.88 578 479 C572.555 486.425 572.555 486.425 567 494 C560.565 502.91 560.565 502.91 554 512 C547.565 520.91 547.565 520.91 541 530 C538.69 532.64 536.38 535.28 534 538 C530.7 539.98 527.4 541.96 524 544 C519.71 545.32 515.42 546.64 511 548 C511 583.97 511 619.94 511 657 C521.89 658.32 532.78 659.64 544 661 C552.91 662.98 552.91 662.98 562 665 C570.415 667.475 570.415 667.475 579 670 C582.3 670.99 585.6 671.98 589 673 C589.99 673 590.98 673 592 673 C592 603.04 592 533.08 592 461 C591.67 461 591.34 461 591 461 Z M469 528 C466.03 530.64 463.06 533.28 460 536 C457.69 538.64 455.38 541.28 453 544 C450.36 546.64 447.72 549.28 445 552 C442.69 554.64 440.38 557.28 438 560 C435.69 562.31 433.38 564.62 431 567 C428.69 569.64 426.38 572.28 424 575 C419.38 579.95 414.76 584.9 410 590 C405.545 594.95 405.545 594.95 401 600 C398.69 602.64 396.38 605.28 394 608 C393.505 608.495 393.505 608.495 393 609 C393 628.14 393 647.28 393 667 C395.64 666.67 398.28 666.34 401 666 C407.435 664.02 407.435 664.02 414 662 C423.9 660.02 423.9 660.02 434 658 C442.415 657.01 442.415 657.01 451 656 C462.385 655.505 462.385 655.505 474 655 C474 614.08 474 573.16 474 531 C473.01 530.01 472.02 529.02 471 528 C470.34 528 469.68 528 469 528 Z M456 685 C447.09 686.32 438.18 687.64 429 689 C416.625 691.97 416.625 691.97 404 695 C402.02 695.99 402.02 695.99 400 697 C400.66 698.65 401.32 700.3 402 702 C407.94 708.93 407.94 708.93 414 716 C416.97 719.63 419.94 723.26 423 727 C428.28 732.61 433.56 738.22 439 744 C441.31 746.64 443.62 749.28 446 752 C452.27 758.27 458.54 764.54 465 771 C467.31 773.64 469.62 776.28 472 779 C474.31 781.31 476.62 783.62 479 786 C482.96 789.465 482.96 789.465 487 793 C493.6 799.6 500.2 806.2 507 813 C510.96 816.465 510.96 816.465 515 820 C517.97 822.97 520.94 825.94 524 829 C527.96 832.465 527.96 832.465 532 836 C536.29 839.96 540.58 843.92 545 848 C546.32 849.32 547.64 850.64 549 852 C552.63 852 556.26 852 560 852 C572.87 849.525 572.87 849.525 586 847 C592.93 845.02 592.93 845.02 600 843 C608.415 840.525 608.415 840.525 617 838 C623.93 835.36 630.86 832.72 638 830 C647.57 825.38 657.14 820.76 667 816 C675.415 811.05 675.415 811.05 684 806 C689.94 802.04 695.88 798.08 702 794 C706.29 790.7 710.58 787.4 715 784 C719.95 780.04 719.95 780.04 725 776 C727.31 773.69 729.62 771.38 732 769 C732 768.34 732 767.68 732 767 C716.82 759.41 701.64 751.82 686 744 C669.665 736.575 669.665 736.575 653 729 C644.75 725.37 636.5 721.74 628 718 C620.41 715.03 612.82 712.06 605 709 C598.565 707.02 598.565 707.02 592 705 C589.03 704.01 586.06 703.02 583 702 C577.72 700.35 572.44 698.7 567 697 C557.1 694.69 547.2 692.38 537 690 C528.75 688.68 520.5 687.36 512 686 C509.03 685.67 506.06 685.34 503 685 C487.49 685 471.98 685 456 685 Z M368 710 C360.08 713.96 360.08 713.96 352 718 C340.615 724.93 340.615 724.93 329 732 C324.05 735.63 319.1 739.26 314 743 C310.37 745.97 306.74 748.94 303 752 C298.71 755.96 294.42 759.92 290 764 C289.01 765.32 288.02 766.64 287 768 C293.435 773.94 293.435 773.94 300 780 C305.28 783.96 310.56 787.92 316 792 C322.93 796.62 329.86 801.24 337 806 C345.91 810.95 345.91 810.95 355 816 C360.28 818.64 365.56 821.28 371 824 C379.91 827.96 379.91 827.96 389 832 C397.25 834.97 405.5 837.94 414 841 C424.56 843.64 435.12 846.28 446 849 C454.25 850.32 462.5 851.64 471 853 C474.3 853.33 477.6 853.66 481 854 C488.92 854 496.84 854 505 854 C504.34 852.68 503.68 851.36 503 850 C497.39 844.72 491.78 839.44 486 834 C476.43 824.43 466.86 814.86 457 805 C455.02 803.35 453.04 801.7 451 800 C448.69 797.36 446.38 794.72 444 792 C436.74 784.74 429.48 777.48 422 770 C419.69 767.36 417.38 764.72 415 762 C411.7 758.37 408.4 754.74 405 751 C402.03 747.37 399.06 743.74 396 740 C391.05 734.555 391.05 734.555 386 729 C383.36 725.7 380.72 722.4 378 719 C375.69 716.03 373.38 713.06 371 710 C370.01 710 369.02 710 368 710 Z " transform="translate(0,0)" style="fill: #FDFDFD;"/><path d="M0 0 C1.65 0.33 3.3 0.66 5 1 C16.88 6.445 16.88 6.445 29 12 C33.95 13.98 38.9 15.96 44 18 C47.96 19.65 51.92 21.3 56 23 C62.6 25.31 69.2 27.62 76 30 C86.89 33.63 97.78 37.26 109 41 C108.34 42.65 107.68 44.3 107 46 C103.535 50.455 103.535 50.455 100 55 C96.37 60.28 92.74 65.56 89 71 C85.04 77.27 81.08 83.54 77 90 C73.04 96.93 69.08 103.86 65 111 C61.37 118.92 57.74 126.84 54 135 C51.69 141.27 49.38 147.54 47 154 C44.525 162.91 44.525 162.91 42 172 C40.68 178.6 39.36 185.2 38 192 C37.01 199.425 37.01 199.425 36 207 C35.67 211.95 35.34 216.9 35 222 C35 227.94 35 233.88 35 240 C35.99 250.23 36.98 260.46 38 271 C39.65 278.59 41.3 286.18 43 294 C46.3 303.9 49.6 313.8 53 324 C57.29 333.24 61.58 342.48 66 352 C70.29 359.26 74.58 366.52 79 374 C81.97 378.29 84.94 382.58 88 387 C88 387.99 88 388.98 88 390 C80.08 394.29 72.16 398.58 64 403 C58.39 406.63 52.78 410.26 47 414 C40.07 418.95 40.07 418.95 33 424 C27.72 428.29 22.44 432.58 17 437 C12.71 440.96 8.42 444.92 4 449 C2.68 449.33 1.36 449.66 0 450 C-2.97 446.37 -5.94 442.74 -9 439 C-12.3 435.04 -15.6 431.08 -19 427 C-23.29 421.06 -27.58 415.12 -32 409 C-35.96 402.4 -39.92 395.8 -44 389 C-48.95 380.09 -48.95 380.09 -54 371 C-57.96 362.09 -61.92 353.18 -66 344 C-69.3 334.1 -72.6 324.2 -76 314 C-77.98 305.75 -79.96 297.5 -82 289 C-83.32 280.42 -84.64 271.84 -86 263 C-86.66 255.74 -87.32 248.48 -88 241 C-88 230.77 -88 220.54 -88 210 C-87.34 202.08 -86.68 194.16 -86 186 C-84.68 177.42 -83.36 168.84 -82 160 C-80.35 153.07 -78.7 146.14 -77 139 C-75.02 132.4 -73.04 125.8 -71 119 C-69.68 115.7 -68.36 112.4 -67 109 C-65.02 103.72 -63.04 98.44 -61 93 C-58.36 87.72 -55.72 82.44 -53 77 C-49.37 70.07 -45.74 63.14 -42 56 C-36.06 47.09 -30.12 38.18 -24 29 C-20.37 24.38 -16.74 19.76 -13 15 C-8.71 10.05 -4.42 5.1 0 0 Z " transform="translate(263,295)" style="fill: #32612B;"/><path d="M0 0 C15.51 0 31.02 0 47 0 C56.57 1.32 66.14 2.64 76 4 C85.24 5.98 94.48 7.96 104 10 C115.385 13.465 115.385 13.465 127 17 C129.97 17.99 132.94 18.98 136 20 C142.93 22.31 149.86 24.62 157 27 C164.92 30.3 172.84 33.6 181 37 C189.25 40.63 197.5 44.26 206 48 C212.6 50.97 219.2 53.94 226 57 C231.28 59.64 236.56 62.28 242 65 C253.22 70.61 264.44 76.22 276 82 C275.34 83.32 274.68 84.64 274 86 C271.36 88.64 268.72 91.28 266 94 C261.71 97.3 257.42 100.6 253 104 C247.39 107.96 241.78 111.92 236 116 C229.4 119.96 222.8 123.92 216 128 C208.41 131.96 200.82 135.92 193 140 C182.605 144.455 182.605 144.455 172 149 C164.41 151.64 156.82 154.28 149 157 C143.39 158.32 137.78 159.64 132 161 C128.04 161.99 124.08 162.98 120 164 C114.72 164.99 109.44 165.98 104 167 C100.37 167 96.74 167 93 167 C89.04 163.04 85.08 159.08 81 155 C78.36 152.69 75.72 150.38 73 148 C66.565 142.06 66.565 142.06 60 136 C57.69 133.69 55.38 131.38 53 129 C49.04 125.535 49.04 125.535 45 122 C39.72 116.72 34.44 111.44 29 106 C25.04 102.535 25.04 102.535 21 99 C17.37 95.37 13.74 91.74 10 88 C7.69 85.36 5.38 82.72 3 80 C-3.27 73.73 -9.54 67.46 -16 61 C-18.31 58.36 -20.62 55.72 -23 53 C-26.63 49.04 -30.26 45.08 -34 41 C-36.97 37.37 -39.94 33.74 -43 30 C-46.63 25.71 -50.26 21.42 -54 17 C-54.66 15.35 -55.32 13.7 -56 12 C-53.36 11.01 -50.72 10.02 -48 9 C-39.42 7.02 -30.84 5.04 -22 3 C-11.11 1.515 -11.11 1.515 0 0 Z " transform="translate(456,685)" style="fill: #32602C;"/><path d="M0 0 C0.66 0 1.32 0 2 0 C8.93 11.88 8.93 11.88 16 24 C19.63 31.26 23.26 38.52 27 46 C31.95 58.87 31.95 58.87 37 72 C38.98 78.27 40.96 84.54 43 91 C44.98 99.25 46.96 107.5 49 116 C49.99 121.61 50.98 127.22 52 133 C52.99 142.57 53.98 152.14 55 162 C55 174.21 55 186.42 55 199 C54.01 208.9 53.02 218.8 52 229 C50.35 237.58 48.7 246.16 47 255 C45.35 261.27 43.7 267.54 42 274 C39.03 282.58 36.06 291.16 33 300 C30.03 306.6 27.06 313.2 24 320 C19.71 328.25 15.42 336.5 11 345 C6.05 352.92 1.1 360.84 -4 369 C-8.62 374.94 -13.24 380.88 -18 387 C-21.63 391.29 -25.26 395.58 -29 400 C-30.65 401.65 -32.3 403.3 -34 405 C-35.98 404.34 -37.96 403.68 -40 403 C-41.98 401.515 -41.98 401.515 -44 400 C-44 288.79 -44 177.58 -44 63 C-41.69 64.32 -39.38 65.64 -37 67 C-33.04 70.3 -29.08 73.6 -25 77 C-20.05 80.63 -15.1 84.26 -10 88 C-9.67 83.05 -9.34 78.1 -9 73 C-7.02 57.49 -5.04 41.98 -3 26 C-1.515 13.13 -1.515 13.13 0 0 Z " transform="translate(791,339)" style="fill: #33602B;"/><path d="M0 0 C3.3 0 6.6 0 10 0 C20.56 1.65 31.12 3.3 42 5 C53.385 7.97 53.385 7.97 65 11 C72.92 13.64 80.84 16.28 89 19 C96.59 22.3 104.18 25.6 112 29 C119.26 32.63 126.52 36.26 134 40 C140.93 44.29 147.86 48.58 155 53 C159.62 56.3 164.24 59.6 169 63 C173.62 66.63 178.24 70.26 183 74 C185.31 75.98 187.62 77.96 190 80 C188.515 80.99 188.515 80.99 187 82 C180.4 84.64 173.8 87.28 167 90 C161.72 91.98 156.44 93.96 151 96 C145.72 97.98 140.44 99.96 135 102 C131.7 103.32 128.4 104.64 125 106 C119.06 108.31 113.12 110.62 107 113 C105.68 112.34 104.36 111.68 103 111 C100.36 107.7 97.72 104.4 95 101 C90.71 95.72 86.42 90.44 82 85 C81.01 83.68 80.02 82.36 79 81 C78.34 81 77.68 81 77 81 C74.03 85.29 71.06 89.58 68 94 C63.71 99.94 59.42 105.88 55 112 C50.71 117.94 46.42 123.88 42 130 C39.69 133.3 37.38 136.6 35 140 C34.01 140.66 33.02 141.32 32 142 C25.4 142.99 18.8 143.98 12 145 C-0.87 145 -13.74 145 -27 145 C-39.21 144.01 -51.42 143.02 -64 142 C-78.85 139.525 -78.85 139.525 -94 137 C-99.94 135.68 -105.88 134.36 -112 133 C-113.32 132.67 -114.64 132.34 -116 132 C-115.01 130.02 -115.01 130.02 -114 128 C-110.04 123.05 -110.04 123.05 -106 118 C-102.37 113.71 -98.74 109.42 -95 105 C-92.03 101.7 -89.06 98.4 -86 95 C-81.545 89.555 -81.545 89.555 -77 84 C-72.71 79.38 -68.42 74.76 -64 70 C-59.545 64.555 -59.545 64.555 -55 59 C-48.07 51.575 -48.07 51.575 -41 44 C-37.535 40.04 -37.535 40.04 -34 36 C-30.37 32.04 -26.74 28.08 -23 24 C-20.69 21.69 -18.38 19.38 -16 17 C-12.535 13.04 -12.535 13.04 -9 9 C-6.03 6.03 -3.06 3.06 0 0 Z " transform="translate(540,187)" style="fill: #325F2B;"/><path d="M0 0 C0.66 0 1.32 0 2 0 C2 4.62 2 9.24 2 14 C1.34 19.61 0.68 25.22 0 31 C-0.33 31.99 -0.66 32.98 -1 34 C-2.485 50.83 -2.485 50.83 -4 68 C-4.66 74.27 -5.32 80.54 -6 87 C-6.33 87.66 -6.66 88.32 -7 89 C-8.65 88.34 -10.3 87.68 -12 87 C-14.97 84.36 -17.94 81.72 -21 79 C-23.97 76.69 -26.94 74.38 -30 72 C-30.99 71.67 -31.98 71.34 -33 71 C-33.66 72.65 -34.32 74.3 -35 76 C-38.63 80.29 -42.26 84.58 -46 89 C-49.465 93.455 -49.465 93.455 -53 98 C-55.97 101.63 -58.94 105.26 -62 109 C-66.29 114.28 -70.58 119.56 -75 125 C-78.3 129.29 -81.6 133.58 -85 138 C-86.65 139.65 -88.3 141.3 -90 143 C-90.33 143.66 -90.66 144.32 -91 145 C-92.32 144.34 -93.64 143.68 -95 143 C-98.96 138.38 -102.92 133.76 -107 129 C-109.31 125.7 -111.62 122.4 -114 119 C-115.65 117.35 -117.3 115.7 -119 114 C-122.96 109.38 -126.92 104.76 -131 100 C-131.99 98.68 -132.98 97.36 -134 96 C-134 95.34 -134 94.68 -134 94 C-134.99 93.67 -135.98 93.34 -137 93 C-137.33 91.68 -137.66 90.36 -138 89 C-138.99 88.67 -139.98 88.34 -141 88 C-142.485 85.525 -142.485 85.525 -144 83 C-144.66 82.67 -145.32 82.34 -146 82 C-146.66 83.65 -147.32 85.3 -148 87 C-151.96 92.445 -151.96 92.445 -156 98 C-160.29 104.27 -164.58 110.54 -169 117 C-175.93 126.405 -175.93 126.405 -183 136 C-186.96 141.61 -190.92 147.22 -195 153 C-199.62 159.27 -204.24 165.54 -209 172 C-212.3 176.62 -215.6 181.24 -219 186 C-222.63 190.95 -226.26 195.9 -230 201 C-232.64 204.63 -235.28 208.26 -238 212 C-242.29 217.94 -246.58 223.88 -251 230 C-251.99 231.65 -252.98 233.3 -254 235 C-254.99 235 -255.98 235 -257 235 C-257 234.34 -257 233.68 -257 233 C-258.32 232.34 -259.64 231.68 -261 231 C-263.97 228.03 -266.94 225.06 -270 222 C-272.64 219.69 -275.28 217.38 -278 215 C-283.61 209.72 -289.22 204.44 -295 199 C-296.32 199.33 -297.64 199.66 -299 200 C-301.31 202.31 -303.62 204.62 -306 207 C-308.31 209.64 -310.62 212.28 -313 215 C-315.97 218.3 -318.94 221.6 -322 225 C-326.62 229.95 -331.24 234.9 -336 240 C-338.31 242.64 -340.62 245.28 -343 248 C-346.63 251.96 -350.26 255.92 -354 260 C-357.465 263.96 -357.465 263.96 -361 268 C-364.96 272.29 -368.92 276.58 -373 281 C-375.31 283.64 -377.62 286.28 -380 289 C-386.93 296.425 -386.93 296.425 -394 304 C-400.93 311.425 -400.93 311.425 -408 319 C-410.97 322.3 -413.94 325.6 -417 329 C-418.32 329.33 -419.64 329.66 -421 330 C-424.3 320.43 -427.6 310.86 -431 301 C-430.67 298.69 -430.34 296.38 -430 294 C-426.04 290.04 -426.04 290.04 -422 286 C-418.535 282.04 -418.535 282.04 -415 278 C-412.03 274.7 -409.06 271.4 -406 268 C-402.37 264.04 -398.74 260.08 -395 256 C-391.37 252.04 -387.74 248.08 -384 244 C-381.69 241.36 -379.38 238.72 -377 236 C-373.04 231.71 -369.08 227.42 -365 223 C-362.69 220.36 -360.38 217.72 -358 215 C-354.37 211.04 -350.74 207.08 -347 203 C-344.03 199.7 -341.06 196.4 -338 193 C-333.38 188.05 -328.76 183.1 -324 178 C-320.37 174.04 -316.74 170.08 -313 166 C-310.69 163.36 -308.38 160.72 -306 158 C-303.69 155.69 -301.38 153.38 -299 151 C-297.68 151.33 -296.36 151.66 -295 152 C-289.06 157.94 -283.12 163.88 -277 170 C-274.36 172.31 -271.72 174.62 -269 177 C-266.36 179.64 -263.72 182.28 -261 185 C-259.35 183.35 -257.7 181.7 -256 180 C-251.71 174.06 -247.42 168.12 -243 162 C-237.06 153.585 -237.06 153.585 -231 145 C-228.36 141.37 -225.72 137.74 -223 134 C-219.7 129.38 -216.4 124.76 -213 120 C-208.71 114.06 -204.42 108.12 -200 102 C-196.04 96.39 -192.08 90.78 -188 85 C-185.36 81.37 -182.72 77.74 -180 74 C-175.05 67.07 -175.05 67.07 -170 60 C-165.38 53.73 -160.76 47.46 -156 41 C-153.69 37.7 -151.38 34.4 -149 31 C-147.68 30.34 -146.36 29.68 -145 29 C-141.7 33.29 -138.4 37.58 -135 42 C-131.04 46.62 -127.08 51.24 -123 56 C-120.03 59.63 -117.06 63.26 -114 67 C-109.38 72.61 -104.76 78.22 -100 84 C-97.69 86.97 -95.38 89.94 -93 93 C-91.02 91.02 -91.02 91.02 -89 89 C-88.34 89 -87.68 89 -87 89 C-86.34 87.35 -85.68 85.7 -85 84 C-81.7 80.04 -78.4 76.08 -75 72 C-70.71 66.39 -66.42 60.78 -62 55 C-60.68 52.69 -59.36 50.38 -58 48 C-59.65 47.34 -61.3 46.68 -63 46 C-69.93 40.555 -69.93 40.555 -77 35 C-78.98 33.02 -78.98 33.02 -81 31 C-77.04 29.515 -77.04 29.515 -73 28 C-67.72 26.02 -62.44 24.04 -57 22 C-54.03 20.68 -51.06 19.36 -48 18 C-42.39 16.02 -36.78 14.04 -31 12 C-28.03 10.68 -25.06 9.36 -22 8 C-15.07 5.525 -15.07 5.525 -8 3 C-5.36 2.01 -2.72 1.02 0 0 Z " transform="translate(766,284)" style="fill: #EF7A09;"/><path d="M0 0 C2.31 1.98 4.62 3.96 7 6 C10.63 10.29 14.26 14.58 18 19 C22.455 22.96 22.455 22.96 27 27 C31.455 28.98 31.455 28.98 36 31 C41.61 31 47.22 31 53 31 C56.3 29.68 59.6 28.36 63 27 C65.64 24.69 68.28 22.38 71 20 C73.97 16.7 76.94 13.4 80 10 C80.33 10 80.66 10 81 10 C81 104.38 81 198.76 81 296 C79.02 295.34 77.04 294.68 75 294 C64.44 289.05 53.88 284.1 43 279 C26.665 272.07 26.665 272.07 10 265 C6.7 263.68 3.4 262.36 0 261 C0 174.87 0 88.74 0 0 Z " transform="translate(629,426)" style="fill: #943F05;"/><path d="M0 0 C2.97 0.33 5.94 0.66 9 1 C17.415 2.98 17.415 2.98 26 5 C34.58 6.65 43.16 8.3 52 10 C56.29 10.66 60.58 11.32 65 12 C76.55 13.32 88.1 14.64 100 16 C106.27 16.33 112.54 16.66 119 17 C127.91 17 136.82 17 146 17 C145.34 18.65 144.68 20.3 144 22 C137.07 31.9 137.07 31.9 130 42 C126.04 47.61 122.08 53.22 118 59 C114.7 63.62 111.4 68.24 108 73 C104.535 77.95 104.535 77.95 101 83 C98.69 81.02 96.38 79.04 94 77 C85.09 68.09 76.18 59.18 67 50 C65.35 50.66 63.7 51.32 62 52 C58.04 56.29 54.08 60.58 50 65 C46.04 69.29 42.08 73.58 38 78 C34.37 81.96 30.74 85.92 27 90 C23.04 94.29 19.08 98.58 15 103 C11.37 106.96 7.74 110.92 4 115 C0.535 118.96 0.535 118.96 -3 123 C-6.63 126.96 -10.26 130.92 -14 135 C-16.31 137.64 -18.62 140.28 -21 143 C-24.96 147.29 -28.92 151.58 -33 156 C-35.97 159.3 -38.94 162.6 -42 166 C-46.95 171.445 -46.95 171.445 -52 177 C-54.31 179.64 -56.62 182.28 -59 185 C-61.97 188.3 -64.94 191.6 -68 195 C-69.98 196.65 -71.96 198.3 -74 200 C-74.33 198.68 -74.66 197.36 -75 196 C-75 185.44 -75 174.88 -75 164 C-74.34 158.06 -73.68 152.12 -73 146 C-71.35 138.41 -69.7 130.82 -68 123 C-65.03 114.09 -62.06 105.18 -59 96 C-54.05 85.77 -49.1 75.54 -44 65 C-40.37 59.06 -36.74 53.12 -33 47 C-27.555 38.585 -27.555 38.585 -22 30 C-18.7 25.38 -15.4 20.76 -12 16 C-8.04 10.72 -4.08 5.44 0 0 Z " transform="translate(402,345)" style="fill: #325F2B;"/><path d="M0 0 C1.32 0.33 2.64 0.66 4 1 C6.64 4.3 9.28 7.6 12 11 C16.455 16.445 16.455 16.445 21 22 C24.96 26.62 28.92 31.24 33 36 C36.3 39.63 39.6 43.26 43 47 C45.31 49.64 47.62 52.28 50 55 C53.96 59.29 57.92 63.58 62 68 C66.95 72.95 71.9 77.9 77 83 C79.31 85.64 81.62 88.28 84 91 C88.29 94.96 92.58 98.92 97 103 C111.85 117.85 111.85 117.85 127 133 C129.64 135.31 132.28 137.62 135 140 C135.66 141.32 136.32 142.64 137 144 C129.08 144 121.16 144 113 144 C107.06 143.34 101.12 142.68 95 142 C82.625 139.525 82.625 139.525 70 137 C64.39 135.68 58.78 134.36 53 133 C44.09 130.03 35.18 127.06 26 124 C19.07 121.03 12.14 118.06 5 115 C-0.28 112.36 -5.56 109.72 -11 107 C-16.61 104.03 -22.22 101.06 -28 98 C-33.94 94.04 -39.88 90.08 -46 86 C-50.62 82.7 -55.24 79.4 -60 76 C-65.445 71.545 -65.445 71.545 -71 67 C-74.3 64.03 -77.6 61.06 -81 58 C-79.02 55.69 -77.04 53.38 -75 51 C-70.71 47.04 -66.42 43.08 -62 39 C-57.71 35.7 -53.42 32.4 -49 29 C-44.05 25.7 -39.1 22.4 -34 19 C-26.575 14.545 -26.575 14.545 -19 10 C-12.07 6.04 -12.07 6.04 -5 2 C-3.35 1.34 -1.7 0.68 0 0 Z " transform="translate(368,710)" style="fill: #32602C;"/><path d="M0 0 C0.33 0 0.66 0 1 0 C1 69.96 1 139.92 1 212 C-0.98 211.67 -2.96 211.34 -5 211 C-13.91 208.525 -13.91 208.525 -23 206 C-32.405 203.525 -32.405 203.525 -42 201 C-50.91 199.68 -59.82 198.36 -69 197 C-72.63 196.67 -76.26 196.34 -80 196 C-80 160.03 -80 124.06 -80 87 C-75.71 85.68 -71.42 84.36 -67 83 C-63.37 80.69 -59.74 78.38 -56 76 C-52.7 72.04 -49.4 68.08 -46 64 C-42.04 58.39 -38.08 52.78 -34 47 C-27.565 38.09 -27.565 38.09 -21 29 C-16.71 23.06 -12.42 17.12 -8 11 C-5.36 7.37 -2.72 3.74 0 0 Z " transform="translate(591,461)" style="fill: #954006;"/><path d="M0 0 C2.64 0 5.28 0 8 0 C7.01 1.65 6.02 3.3 5 5 C1.535 8.465 1.535 8.465 -2 12 C-5.465 15.96 -5.465 15.96 -9 20 C-15.93 27.425 -15.93 27.425 -23 35 C-26.465 38.96 -26.465 38.96 -30 43 C-33.3 46.63 -36.6 50.26 -40 54 C-42.97 57.63 -45.94 61.26 -49 65 C-52.3 68.63 -55.6 72.26 -59 76 C-61.97 79.63 -64.94 83.26 -68 87 C-72.29 91.95 -76.58 96.9 -81 102 C-84.63 106.62 -88.26 111.24 -92 116 C-95.465 120.455 -95.465 120.455 -99 125 C-101.97 124.67 -104.94 124.34 -108 124 C-120.21 120.04 -132.42 116.08 -145 112 C-154.57 108.37 -164.14 104.74 -174 101 C-182.58 97.37 -191.16 93.74 -200 90 C-201.32 89.34 -202.64 88.68 -204 88 C-203.34 86.68 -202.68 85.36 -202 84 C-198.7 81.03 -195.4 78.06 -192 75 C-185.4 70.05 -178.8 65.1 -172 60 C-162.1 53.565 -162.1 53.565 -152 47 C-146.06 43.7 -140.12 40.4 -134 37 C-127.07 33.7 -120.14 30.4 -113 27 C-109.37 25.35 -105.74 23.7 -102 22 C-95.4 19.69 -88.8 17.38 -82 15 C-74.74 13.02 -67.48 11.04 -60 9 C-52.08 7.35 -44.16 5.7 -36 4 C-25.11 2.515 -25.11 2.515 -14 1 C-9.38 0.67 -4.76 0.34 0 0 Z " transform="translate(492,185)" style="fill: #325F2B;"/><path d="M0 0 C1.32 0.66 2.64 1.32 4 2 C4.495 2.495 4.495 2.495 5 3 C5 43.92 5 84.84 5 127 C-6.385 127.495 -6.385 127.495 -18 128 C-24.93 128.99 -31.86 129.98 -39 131 C-44.28 131.99 -49.56 132.98 -55 134 C-60.61 135.65 -66.22 137.3 -72 139 C-73.32 139 -74.64 139 -76 139 C-76 119.86 -76 100.72 -76 81 C-73.69 78.69 -71.38 76.38 -69 74 C-66.69 71.36 -64.38 68.72 -62 66 C-57.545 61.05 -57.545 61.05 -53 56 C-49.04 51.71 -45.08 47.42 -41 43 C-35.555 37.06 -35.555 37.06 -30 31 C-25.05 25.72 -20.1 20.44 -15 15 C-11.04 10.71 -7.08 6.42 -3 2 C-2.01 1.34 -1.02 0.68 0 0 Z " transform="translate(469,528)" style="fill: #944006;"/></svg>