<svg width="512" height="512" viewBox="0 0 512 512" fill="none" xmlns="http://www.w3.org/2000/svg">
  <!-- Gradient Background -->
  <rect width="512" height="512" rx="100" fill="url(#paint0_linear)"/>

  <!-- Stylized Chart / Graph Lines in Background -->
  <line x1="50" y1="100" x2="462" y2="100" stroke="white" stroke-width="1" opacity="0.1"/>
  <line x1="50" y1="200" x2="462" y2="200" stroke="white" stroke-width="1" opacity="0.1"/>
  <line x1="50" y1="300" x2="462" y2="300" stroke="white" stroke-width="1" opacity="0.1"/>
  <line x1="50" y1="400" x2="462" y2="400" stroke="white" stroke-width="1" opacity="0.1"/>

  <!-- The "Performance Graph" Line (Neon Pink) -->
  <path d="M60 420L120 380L180 410L240 320L300 350L360 220L420 260L460 150" stroke="#FF007A" stroke-width="12" stroke-linecap="round" stroke-linejoin="round" opacity="0.8"/>
  <circle cx="240" cy="320" r="6" fill="#FF007A"/>
  <circle cx="360" cy="220" r="6" fill="#FF007A"/>
  <circle cx="460" cy="150" r="8" fill="#FF007A" />

  <!-- Main Tennis Ball -->
  <circle cx="256" cy="256" r="140" fill="#E3FF00"/>

  <!-- Single Neon Cyan Seam -->
  <path d="M140 220C170 140 340 140 370 220" stroke="#00E5FF" stroke-width="32" stroke-linecap="round"/>

  <!-- Subtle 3D Shadow -->
  <path d="M116 256C116 333.314 178.686 396 256 396C333.314 396 396 333.314 396 256" stroke="black" stroke-width="8" opacity="0.1"/>

  <!-- Reflection -->
  <path d="M330 180C345 195 355 220 355 245" stroke="white" stroke-width="10" stroke-linecap="round" opacity="0.4"/>

  <defs>
    <linearGradient id="paint0_linear" x1="0" y1="0" x2="512" y2="512" gradientUnits="userSpaceOnUse">
      <stop stop-color="#2D00F7"/>
      <stop offset="1" stop-color="#7B2FF7"/>
    </linearGradient>
  </defs>
</svg>
